# Blender v2.66 (sub 1) OBJ File: ''
# www.blender.org
mtllib room2.mtl
o floor_1_library_Cube41
v -6.924438 -0.010322 7.510227
v -6.924438 3.564095 7.510230
v -6.924430 3.564099 -7.827991
v -6.924430 -0.010321 -7.827992
v -5.681170 -0.010322 7.510228
v -5.681170 3.564095 7.510231
v -5.681162 -0.010321 -7.827991
v -5.681162 3.564099 -7.827991
vt 1.000000 0.000000
vt 1.000000 1.000000
vt 0.000000 1.000000
vt 0.000000 0.000000
vn -1.000000 0.000000 -0.000001
vn -0.000001 -0.000001 1.000000
vn 1.000000 0.000000 0.000001
vn 0.000000 0.000000 -1.000000
vn 0.000001 -0.000000 -1.000000
vn -0.000000 1.000000 0.000000
vn 0.000000 -1.000000 -0.000000
usemtl Wall
s off
f 1/1/1 2/2/1 3/3/1
f 1/1/1 3/3/1 4/4/1
f 2/3/2 1/4/2 5/1/2
f 2/3/2 5/1/2 6/2/2
f 7/1/3 8/2/3 6/3/3
f 7/1/3 6/3/3 5/4/3
f 4/1/4 3/2/4 8/3/4
f 4/1/5 8/3/5 7/4/5
f 2/1/6 6/2/6 8/3/6
f 2/1/6 8/3/6 3/4/6
f 5/1/7 1/2/7 4/3/7
f 5/1/7 4/3/7 7/4/7
o floor_1_stairway_room_Plane19
v 6.066231 -0.010322 -7.630525
v 6.066231 -0.010319 -14.041677
v -6.777974 -0.010319 -14.041677
v -6.777974 -0.010322 -7.630525
vt 1.000000 0.000000
vt 1.000000 1.000000
vt 0.000000 1.000000
vt 0.000000 0.000000
usemtl Floor2
s off
f 9/5/6 10/6/6 11/7/6
f 9/5/6 11/7/6 12/8/6
o floor_1_hallway_1_Plane20
v 14.761827 -0.010323 2.984457
v 14.761827 -0.010322 -8.247082
v 5.950764 -0.010322 -8.247082
v 5.950764 -0.010323 2.984457
vt 1.000000 0.000000
vt 1.000000 1.000000
vt 0.000000 1.000000
vt 0.000000 0.000000
usemtl Floor2
s off
f 13/9/6 14/10/6 15/11/6
f 13/9/6 15/11/6 16/12/6
o floor_1_hallway_2_Cube64
v 6.314602 -0.010321 -7.589231
v 6.314602 3.564100 -7.589231
v 6.314603 3.564098 -8.353545
v 6.314603 -0.010321 -8.353548
v 9.677960 -0.010321 -7.589229
v 9.677960 3.564100 -7.589231
v 9.677961 -0.010321 -8.353546
v 9.677961 3.564098 -8.353543
vt 1.000000 0.000000
vt 1.000000 1.000000
vt 0.000000 1.000000
vt 0.000000 0.000000
vn -0.000001 0.000000 1.000000
vn -0.000000 0.000000 1.000000
vn 0.000001 0.000001 -1.000000
vn 0.000000 1.000000 -0.000002
usemtl Wall
s off
f 17/13/1 18/14/1 19/15/1
f 17/13/1 19/15/1 20/16/1
f 18/15/8 17/16/8 21/13/8
f 18/15/9 21/13/9 22/14/9
f 23/13/3 24/14/3 22/15/3
f 23/13/3 22/15/3 21/16/3
f 20/13/10 19/14/10 24/15/10
f 20/13/10 24/15/10 23/16/10
f 18/13/11 22/14/11 24/15/11
f 18/13/11 24/15/11 19/16/11
f 21/13/7 17/14/7 20/15/7
f 21/13/7 20/15/7 23/16/7
o floor_1_library_Cube60
v 5.201743 -0.010321 -7.603782
v 5.201743 3.564100 -7.603785
v 5.201743 3.564098 -8.133603
v 5.201743 -0.010321 -8.133606
v 5.778468 -0.010321 -7.603782
v 5.778468 3.564100 -7.603784
v 5.778468 -0.010321 -8.133605
v 5.778468 3.564098 -8.133603
vt 1.000000 0.000000
vt 1.000000 1.000000
vt 0.000000 1.000000
vt 0.000000 0.000000
vn -1.000000 0.000000 0.000000
vn 0.000000 0.000001 1.000000
vn -0.000002 0.000000 1.000000
vn 1.000000 0.000000 0.000000
vn 0.000000 0.000001 -1.000000
vn 0.000002 0.000001 -1.000000
usemtl Wall
s off
f 25/17/12 26/18/12 27/19/12
f 25/17/12 27/19/12 28/20/12
f 26/19/13 25/20/13 29/17/13
f 26/19/14 29/17/14 30/18/14
f 31/17/15 32/18/15 30/19/15
f 31/17/15 30/19/15 29/20/15
f 28/17/16 27/18/16 32/19/16
f 28/17/17 32/19/17 31/20/17
f 26/17/11 30/18/11 32/19/11
f 26/17/11 32/19/11 27/20/11
f 29/17/7 25/18/7 28/19/7
f 29/17/7 28/19/7 31/20/7
o floor_1_hallway_2_Plane22
v 14.761827 -0.010322 -8.082592
v 14.761827 -0.010319 -14.032812
v 5.950764 -0.010319 -14.032812
v 5.950764 -0.010322 -8.082592
vt 1.000000 0.000000
vt 1.000000 1.000000
vt 0.000000 1.000000
vt 0.000000 0.000000
usemtl Floor2
s off
f 33/21/6 34/22/6 35/23/6
f 33/21/6 35/23/6 36/24/6
o floor_1_library_Plane11
v 6.066231 -0.010322 6.838699
v 6.066231 -0.010322 -7.651088
v -6.777974 -0.010322 -7.651088
v -6.777974 -0.010322 6.838699
vt 1.000000 0.000000
vt 1.000000 1.000000
vt 0.000000 1.000000
vt 0.000000 0.000000
usemtl Floor2
s off
f 37/25/6 38/26/6 39/27/6
f 37/25/6 39/27/6 40/28/6
o floor_1_library_Cube55
v -4.619473 -0.010321 -7.618942
v -4.619473 3.564100 -7.618939
v -4.619473 3.564098 -8.078065
v -4.619473 -0.010321 -8.078068
v 5.645657 -0.010321 -7.618936
v 5.645657 3.564100 -7.618937
v 5.645658 -0.010321 -8.078062
v 5.645658 3.564098 -8.078059
vt 1.000000 0.000000
vt 1.000000 1.000000
vt 0.000000 1.000000
vt 0.000000 0.000000
vn 1.000000 -0.000000 0.000002
vn 0.000000 1.000000 -0.000003
usemtl Wall
s off
f 41/29/12 42/30/12 43/31/12
f 41/29/12 43/31/12 44/32/12
f 42/31/2 41/32/2 45/29/2
f 42/31/9 45/29/9 46/30/9
f 47/29/18 48/30/18 46/31/18
f 47/29/18 46/31/18 45/32/18
f 44/29/10 43/30/10 48/31/10
f 44/29/10 48/31/10 47/32/10
f 42/29/19 46/30/19 48/31/19
f 42/29/19 48/31/19 43/32/19
f 45/29/7 41/30/7 44/31/7
f 45/29/7 44/31/7 47/32/7
o floor_1_hallway_1_Cube68
v 5.800816 -0.010326 -7.370085
v 5.800816 3.564093 -7.370090
v 5.800820 3.564096 6.910767
v 5.800820 -0.010320 6.910771
v 6.575149 -0.010326 -7.370085
v 6.575149 3.564093 -7.370090
v 6.575153 -0.010320 6.910771
v 6.575153 3.564096 6.910767
vt 1.000000 0.000000
vt 1.000000 1.000000
vt 0.000000 1.000000
vt 0.000000 0.000000
vn 0.000000 0.000002 1.000000
vn -0.000000 -0.000001 -1.000000
usemtl Wall
s off
f 49/33/15 50/34/15 51/35/15
f 49/33/15 51/35/15 52/36/15
f 50/35/20 49/36/20 53/33/20
f 50/35/20 53/33/20 54/34/20
f 55/33/12 56/34/12 54/35/12
f 55/33/12 54/35/12 53/36/12
f 52/33/21 51/34/21 56/35/21
f 52/33/21 56/35/21 55/36/21
f 50/33/7 54/34/7 56/35/7
f 50/33/7 56/35/7 51/36/7
f 53/33/6 49/34/6 52/35/6
f 53/33/6 52/35/6 55/36/6
o floor_1_hallway_1_Cube69
v 6.576645 -0.010324 3.834638
v 6.576645 3.564093 3.834641
v 6.576645 3.564095 2.932236
v 6.576645 -0.010322 2.932236
v 14.902124 -0.010324 3.834643
v 14.902124 3.564093 3.834643
v 14.902124 -0.010322 2.932240
v 14.902124 3.564095 2.932241
vt 1.000000 0.000000
vt 1.000000 1.000000
vt 0.000000 1.000000
vt 0.000000 0.000000
vn -0.000000 1.000000 0.000002
vn 0.000000 -1.000000 -0.000002
usemtl Wall
s off
f 57/37/12 58/38/12 59/39/12
f 57/37/12 59/39/12 60/40/12
f 58/39/2 57/40/2 61/37/2
f 58/39/9 61/37/9 62/38/9
f 63/37/15 64/38/15 62/39/15
f 63/37/15 62/39/15 61/40/15
f 60/37/5 59/38/5 64/39/5
f 60/37/4 64/39/4 63/40/4
f 58/37/22 62/38/22 64/39/22
f 58/37/22 64/39/22 59/40/22
f 61/37/23 57/38/23 60/39/23
f 61/37/23 60/39/23 63/40/23
o floor_1_library_Cube50
v -6.047165 -0.010321 7.503855
v -6.047165 3.564095 7.503858
v -6.047165 3.564095 6.820815
v -6.047165 -0.010321 6.820812
v 6.402597 -0.010321 7.503862
v 6.402597 3.564095 7.503860
v 6.402598 -0.010321 6.820818
v 6.402598 3.564095 6.820817
vt 1.000000 0.000000
vt 1.000000 1.000000
vt 0.000000 1.000000
vt 0.000000 0.000000
usemtl Wall
s off
f 65/41/12 66/42/12 67/43/12
f 65/41/12 67/43/12 68/44/12
f 66/43/2 65/44/2 69/41/2
f 66/43/13 69/41/13 70/42/13
f 71/41/3 72/42/3 70/43/3
f 71/41/3 70/43/3 69/44/3
f 68/41/16 67/42/16 72/43/16
f 68/41/4 72/43/4 71/44/4
f 66/41/6 70/42/6 72/43/6
f 66/41/6 72/43/6 67/44/6
f 69/41/7 65/42/7 68/43/7
f 69/41/7 68/43/7 71/44/7
